<mxfile host="app.diagrams.net" modified="2023-12-28T08:30:25.353Z" agent="Mozilla/5.0 (Macintosh; Intel Mac OS X 10_15_7) AppleWebKit/537.36 (KHTML, like Gecko) Chrome/120.0.0.0 Safari/537.36 Edg/120.0.0.0" version="22.1.15" etag="kM6vAsF1ouEksIi-4u57" type="github">
  <diagram name="第 1 页" id="TYRlshseiTirOfSFkn9K">
    <mxGraphModel>
      <root>
        <mxCell id="0" />
        <mxCell id="1" parent="0" />
      </root>
    </mxGraphModel>
  </diagram>
</mxfile>
